<svg xmlns="http://www.w3.org/2000/svg" viewBox="0 0 1440 160" preserveAspectRatio="none" width="100%" height="160">
  <defs>
    <linearGradient id="fadeGradient" gradientUnits="userSpaceOnUse" x1="0" y1="0" x2="1440" y2="0">
      <stop offset="0%" stop-color="#B7C6D9" stop-opacity="1"/>
      <stop offset="40%" stop-color="#B7C6D9" stop-opacity="1"/>
      <stop offset="68%" stop-color="#B7C6D9" stop-opacity="0"/>
    </linearGradient>
  </defs>
  <path d="M0,50 C240,20 480,85 720,55 C960,25 1200,85 1440,55 L1440,102 C1200,77 960,117 720,97 C480,82 240,112 0,92 Z" fill="#0a2d56"/>
  <path d="M0,92 C240,112 480,82 720,97 C960,117 1200,77 1440,102 L1440,110 C1200,85 960,125 720,105 C480,90 240,120 0,100 Z" fill="#f6c10d"/>
  <path d="M0,50 C240,20 480,85 720,55 C960,25 1200,85 1440,55 L1440,110 C1200,85 960,125 720,105 C480,90 240,120 0,100 Z" fill="url(#fadeGradient)"/>
</svg>
