<svg viewBox="0 0 1060 480" xmlns="http://www.w3.org/2000/svg">
  <defs>
    <linearGradient id="goldGrad" x1="0%" y1="0%" x2="0%" y2="100%">
      <stop offset="0%" stop-color="#ffd85e"/>
      <stop offset="55%" stop-color="#f0a92e"/>
      <stop offset="100%" stop-color="#c9820a"/>
    </linearGradient>
    <linearGradient id="greenGrad" x1="0%" y1="0%" x2="100%" y2="100%">
      <stop offset="0%" stop-color="#5aa844"/>
      <stop offset="100%" stop-color="#2f6d2a"/>
    </linearGradient>
    <linearGradient id="goldGrad2" x1="0%" y1="0%" x2="100%" y2="100%">
      <stop offset="0%" stop-color="#ffe27a"/>
      <stop offset="100%" stop-color="#d99a1a"/>
    </linearGradient>
  </defs>

  <g id="emblem">
    <path d="M 20.96,144.71 A 175.00,175.00 0 0 1 297.74,52.10 L 330.73,108.75 L 282.35,71.80 A 150.00,150.00 0 0 0 45.11,151.18 Z" fill="url(#greenGrad)"/>
    <path d="M 53.74,140.41 A 145.00,145.00 0 0 1 258.07,61.97 L 292.27,104.19 L 247.28,82.28 A 122.00,122.00 0 0 0 75.36,148.27 Z" fill="url(#greenGrad)"/>
    <path d="M 83.96,140.55 A 117.00,117.00 0 0 1 226.15,78.73 L 258.46,108.42 L 219.67,98.70 A 96.00,96.00 0 0 0 102.99,149.43 Z" fill="url(#greenGrad)"/>

    <path d="M 313.72,293.81 L 272.16,344.52 A 175.00,175.00 0 0 1 15.67,205.25 L 42.56,202.90 A 148.00,148.00 0 0 0 259.48,320.68 L 313.72,293.81 Z" fill="url(#goldGrad)"/>
    <path d="M 296.90,264.85 L 267.88,309.93 A 143.00,143.00 0 0 1 51.87,227.01 L 76.02,220.54 A 118.00,118.00 0 0 0 254.27,288.96 L 296.90,264.85 Z" fill="url(#goldGrad2)"/>

    <g transform="translate(95,150) rotate(-4)">
      <rect x="0" y="14" width="185" height="60" rx="14" fill="#ffffff"/>
      <rect x="20" y="28" width="28" height="24" rx="4" fill="#1c2b57"/>
      <rect x="60" y="28" width="28" height="24" rx="4" fill="#1c2b57"/>
      <rect x="100" y="28" width="28" height="24" rx="4" fill="#1c2b57"/>
      <rect x="140" y="28" width="26" height="24" rx="4" fill="#1c2b57"/>
      <circle cx="38" cy="76" r="13" fill="#1c2b57"/>
      <circle cx="147" cy="76" r="13" fill="#1c2b57"/>
    </g>
  </g>

  <g id="wordmark-agencia">
    <path d="M441.91604 140.328H425.15852L422.4722 150.0H411.02336L427.2692 95.244H439.93328L456.17912 150.0H444.60236ZM439.1018 130.032 433.53728 109.98599999999999 428.03672 130.032Z" fill="#ffffff" stroke="#152049" stroke-width="4"/>
    <path d="M491.90939999999995 112.56Q490.69415999999995 109.83 488.42357999999996 108.387Q486.15299999999996 106.944 483.08291999999994 106.944Q477.77423999999996 106.944 474.57624 111.195Q471.37823999999995 115.446 471.37823999999995 122.544Q471.37823999999995 130.11 474.73614 134.361Q478.09403999999995 138.612 483.97835999999995 138.612Q488.00784 138.612 490.7901 136.11599999999999Q493.57236 133.62 494.85155999999995 128.94H480.97223999999994V119.112H504.76536V131.514Q503.55012 136.506 500.63993999999997 140.796Q497.72975999999994 145.086 493.25255999999996 147.738Q488.77536 150.39 483.14687999999995 150.39Q476.49503999999996 150.39 471.28229999999996 146.841Q466.06955999999997 143.292 463.15937999999994 136.974Q460.2492 130.656 460.2492 122.544Q460.2492 114.432 463.15937999999994 108.075Q466.06955999999997 101.718 471.25032 98.16900000000001Q476.43107999999995 94.62 483.08291999999994 94.62Q491.14187999999996 94.62 496.67441999999994 99.378Q502.20696 104.136 503.99784 112.56Z" fill="#ffffff" stroke="#152049" stroke-width="4"/>
    <path d="M522.77872 105.93V117.006H537.42556V127.30199999999999H522.77872V139.314H539.3443599999999V150.0H511.84156V95.244H539.3443599999999V105.93Z" fill="#ffffff" stroke="#152049" stroke-width="4"/>
    <path d="M587.6107999999999 150.0H576.67364L558.38108 116.226V150.0H547.4439199999999V95.244H558.38108L576.67364 129.174V95.244H587.6107999999999Z" fill="#ffffff" stroke="#152049" stroke-width="4"/>
    <path d="M617.2648800000001 94.62Q625.2598800000001 94.62 630.9523200000001 99.768Q636.64476 104.916 638.56356 113.80799999999999H626.53908Q625.19592 110.376 622.7334599999999 108.582Q620.271 106.788 617.13696 106.788Q612.08412 106.788 608.9500800000001 111.078Q605.81604 115.368 605.81604 122.544Q605.81604 129.72 608.9500800000001 134.01Q612.08412 138.3 617.13696 138.3Q620.271 138.3 622.7334599999999 136.506Q625.19592 134.712 626.53908 131.28H638.56356Q636.64476 140.172 630.9523200000001 145.281Q625.2598800000001 150.39 617.2648800000001 150.39Q610.74096 150.39 605.59218 146.841Q600.4434 143.292 597.5652 136.974Q594.687 130.656 594.687 122.544Q594.687 114.432 597.5652 108.075Q600.4434 101.718 605.59218 98.16900000000001Q610.74096 94.62 617.2648800000001 94.62Z" fill="#ffffff" stroke="#152049" stroke-width="4"/>
    <path d="M657.2165200000001 95.244V150.0H646.27936V95.244Z" fill="#ffffff" stroke="#152049" stroke-width="4"/>
    <path d="M694.09808 140.328H677.34056L674.6542400000001 150.0H663.2054L679.45124 95.244H692.11532L708.36116 150.0H696.7844ZM691.28384 130.032 685.71932 109.98599999999999 680.21876 130.032Z" fill="#ffffff" stroke="#152049" stroke-width="4"/>
  </g>
  <g id="wordmark-viajes">
    <path d="M470.3804214047968 175.244 449.5278209473843 230.0H431.6063089076804L410.75370845026794 175.244H425.99536822235257L440.5670649275324 216.584L455.22250701607527 175.244Z" fill="#ffffff" stroke="#152049" stroke-width="4"/>
    <path d="M491.6468041786676 175.244V230.0H477.32634362357703V175.244Z" fill="#ffffff" stroke="#152049" stroke-width="4"/>
    <path d="M539.627964245368 220.328H517.6866738042352L514.1693677029849 230.0H499.17894408098954L520.4502714552176 175.244H537.0318573611119L558.3031847353399 230.0H543.1452703466183ZM535.9431673773914 210.032 528.6573190248016 189.986 521.4552160555747 210.032Z" fill="#ffffff" stroke="#152049" stroke-width="4"/>
    <path d="M602.5995479340637 175.244V212.528Q602.5995479340637 221.186 597.3654614738698 225.86599999999999Q592.1313750136759 230.546 583.254364377187 230.546Q573.9586268238827 230.546 568.3476861385548 225.632Q562.736745453227 220.718 562.736745453227 211.67000000000002H576.9734606249543Q576.9734606249543 215.102 578.4808775254902 216.857Q579.9882944260261 218.612 582.8356374603716 218.612Q585.4317443446278 218.612 586.8554158618005 217.052Q588.2790873789731 215.492 588.2790873789731 212.528V175.244Z" fill="#ffffff" stroke="#152049" stroke-width="4"/>
    <path d="M629.4768713932623 185.93V197.006H648.6545641834127V207.302H629.4768713932623V219.314H651.1669256843059V230.0H615.1564108381718V175.244H651.1669256843059V185.93Z" fill="#ffffff" stroke="#152049" stroke-width="4"/>
    <path d="M659.787755570348 213.62H675.0294153424327Q675.3643968758852 216.662 677.2905406932365 218.26100000000002Q679.2166845105878 219.86 682.3152636950226 219.86Q685.4975882628205 219.86 687.3399866968088 218.495Q689.182385130797 217.13 689.182385130797 214.712Q689.182385130797 212.684 687.7168409219428 211.358Q686.2512967130884 210.032 684.1157894373293 209.174Q681.9802821615702 208.316 678.0442491435044 207.224Q672.3495630748134 205.586 668.7485115902 203.948Q665.1474601055867 202.31 662.5513532213305 199.112Q659.9552463370743 195.914 659.9552463370743 190.766Q659.9552463370743 183.122 665.9011685558546 178.793Q671.8470907746348 174.464 681.3940644780286 174.464Q691.1085289481484 174.464 697.0544511669286 178.793Q703.0003733857089 183.122 703.4191003025244 190.844H687.9262043803504Q687.7587136136243 188.192 685.832569796273 186.671Q683.9064259789216 185.15 680.8915921778499 185.15Q678.2954852935937 185.15 676.7043230096948 186.437Q675.1131607257959 187.724 675.1131607257959 190.142Q675.1131607257959 192.79399999999998 677.7930129934151 194.276Q680.4728652610344 195.758 686.1675513297254 197.474Q691.8622373984163 199.268 695.4214161913482 200.906Q698.9805949842801 202.544 701.5767018685362 205.664Q704.1728087527923 208.784 704.1728087527923 213.698Q704.1728087527923 218.378 701.6185745602177 222.2Q699.0643403676431 226.022 694.2071081325832 228.284Q689.3498758975232 230.546 682.7339906118382 230.546Q676.2855960928792 230.546 671.17712770773 228.596Q666.0686593225807 226.646 663.0119528298276 222.824Q659.9552463370743 219.002 659.787755570348 213.62Z" fill="#ffffff" stroke="#152049" stroke-width="4"/>
  </g>
  <g id="wordmark-cz">
    <path d="M825.73056 83.65Q848.85556 83.65 865.32056 95.86000000000001Q881.78556 108.07000000000001 887.33556 129.16H852.55556Q848.67056 121.02 841.5480600000001 116.765Q834.42556 112.51 825.36056 112.51Q810.74556 112.51 801.68056 122.685Q792.61556 132.86 792.61556 149.88Q792.61556 166.9 801.68056 177.075Q810.74556 187.25 825.36056 187.25Q834.42556 187.25 841.5480600000001 182.995Q848.67056 178.74 852.55556 170.6H887.33556Q881.78556 191.69 865.32056 203.8075Q848.85556 215.925 825.73056 215.925Q806.86056 215.925 791.9680599999999 207.5075Q777.07556 199.09 768.75056 184.10500000000002Q760.42556 169.12 760.42556 149.88Q760.42556 130.64 768.75056 115.5625Q777.07556 100.485 791.9680599999999 92.0675Q806.86056 83.65 825.73056 83.65Z" fill="url(#goldGrad2)"/>
    <path d="M940.43056 189.1H996.30056V215.0H904.54056V190.95L960.04056 111.03H904.54056V85.13H996.30056V109.18Z" fill="url(#goldGrad2)"/>
  </g>
  <g id="tagline">
    <path d="M455.20799999999997 264.496 454.48 263.656C452.18399999999997 267.576 451.904 267.856 449.888 267.856L446.36 267.744L435.328 267.296C425.528 267.296 418.248 272.616 418.248 279.784C418.248 281.576 418.64 283.144 419.648 285.104L423.848 282.36C422.784 279.616 422.56 278.776 422.56 277.20799999999997C422.56 274.072 424.016 271.664 426.76 270.376C428.16 269.704 430.232 269.424 433.2 269.424C434.376 269.424 435.496 269.48 438.296 269.704L433.76 287.96C431.744 296.192 430.68 297.592 425.92 297.816L423.96 300.0C437.456 300.0 438.296 299.888 442.832 297.368L442.944 296.92C440.48 297.256 436.896 297.48 433.872 297.48L431.296 297.368C435.608 293.728 437.008 291.712 437.96 287.456L442.328 269.928C449.664 270.544 449.72 270.544 450.84000000000003 270.544C453.472 270.544 453.86400000000003 270.04 455.20799999999997 264.496Z" fill="url(#goldGrad2)" stroke="#8a5c07" stroke-width="0.6"/>
    <path d="M471.784 293.896 471.504 293.392C470.496 294.064 466.632 296.64 465.79200000000003 296.64C465.064 296.64 465.008 295.632 465.008 294.848C465.008 291.824 467.864 280.792 469.208 276.928C468.424 277.376 465.23199999999997 278.944 464.56 279.28L461.704 291.76800000000003C461.592 292.16 460.472 293.168 460.36 293.504C459.408 294.12 455.544 296.696 454.592 296.696C453.64 296.696 453.416 295.464 453.416 294.68C453.416 292.44 455.152 286.28 456.104 282.64C456.44 281.184 457.112 278.552 457.112 277.88C457.112 277.376 456.888 277.096 456.384 277.096C455.376 277.096 449.272 280.848 447.648 281.744L447.536 283.256C448.656 282.696 450.504 281.632 451.456 281.632C452.016 281.632 452.184 282.248 452.184 282.696C452.184 285.832 449.216 293.616 449.216 297.984C449.216 299.272 449.552 300.784 451.064 300.784C452.464 300.784 460.08 295.576 461.088 294.848C460.92 295.968 460.528 298.488 460.528 299.552C460.528 300.168 460.92 300.728 461.648 300.728C463.104 300.728 468.928 296.752 471.056 295.128C471.336 294.96 471.672 294.008 471.784 293.896Z" fill="url(#goldGrad2)" stroke="#8a5c07" stroke-width="0.6"/>
    <path d="M508.688 294.4 508.912 292.664C508.18399999999997 293.112 507.62399999999997 293.504 507.344 293.672C504.264 295.8 502.69599999999997 296.696 502.192 296.696C501.74399999999997 296.696 501.40799999999996 296.08 501.40799999999996 295.24C501.40799999999996 293.392 506.11199999999997 273.12 507.288 269.648C508.52 266.288 509.752 265.0 511.768 265.0C512.496 265.0 513.056 265.112 514.3439999999999 265.448L516.304 262.312C515.4639999999999 262.144 515.016 262.088 514.512 262.088C513.168 262.088 512.4399999999999 262.312 511.152 263.04C509.752 263.824 507.84799999999996 265.28 506.28 266.736C503.536 269.368 503.368 269.76 501.912 275.528L501.464 277.32C500.45599999999996 277.096 499.616 276.984 499.168 276.984C497.43199999999996 276.984 492.616 280.008 490.376 282.472C488.472 284.656 485.952 292.552 485.952 296.416C485.952 298.544 487.072 300.728 488.08 300.728C489.144 300.728 491.608 299.216 497.488 294.96C497.20799999999997 296.36 497.03999999999996 297.984 497.03999999999996 298.992C497.03999999999996 300.112 497.488 300.728 498.272 300.728C499.168 300.728 504.03999999999996 297.76 508.688 294.4ZM497.936 292.888C493.176 296.248 491.94399999999996 296.976 491.15999999999997 296.976C490.376 296.976 489.984 296.136 489.984 294.512C489.984 292.664 490.32 290.536 490.99199999999996 288.072C492.616 282.416 494.8 279.616 497.656 279.616C498.664 279.616 499.392 280.008 500.568 281.128Z" fill="url(#goldGrad2)" stroke="#8a5c07" stroke-width="0.6"/>
    <path d="M527.112 294.064V292.44C525.04 294.12 521.064 297.536 518.208 297.536C515.072 297.536 514.7919999999999 294.176 514.848 291.992C516.136 291.376 521.624 287.23199999999997 522.7439999999999 286.392C524.8159999999999 284.712 526.328 282.92 526.328 280.288C526.328 278.44 525.208 277.04 523.136 277.04C521.12 277.04 519.384 278.048 517.3679999999999 279.616C512.4399999999999 283.424 510.70399999999995 289.696 510.70399999999995 294.96C510.70399999999995 298.376 512.1039999999999 300.784 515.52 300.784C519.832 300.784 524.8159999999999 296.36 527.112 294.064ZM522.184 281.856C522.184 285.888 517.592 288.184 514.904 290.256C515.1279999999999 287.456 517.256 279.504 520.448 279.504C521.68 279.504 522.184 280.624 522.184 281.856Z" fill="url(#goldGrad2)" stroke="#8a5c07" stroke-width="0.6"/>
    <path d="M545.872 278.888C544.752 277.544 543.688 276.984 542.12 276.984C538.032 276.984 532.768 281.856 532.768 285.552C532.768 287.288 533.664 288.632 535.792 290.144C538.592 292.104 538.984 292.608 538.984 294.008C538.984 296.024 536.408 298.376 534.224 298.376C532.992 298.376 532.04 297.704 531.48 296.472C531.088 295.632 530.976 294.792 530.92 292.888C530.304 293.336 529.856 293.616 529.632 293.784C529.184 294.064 528.68 294.344 528.176 294.68C528.176 294.68 527.728 294.96 527.168 295.352C527.112 295.856 527.056 296.304 527.056 296.64C527.056 299.048 528.736 300.728 531.2 300.728C532.936 300.728 535.3439999999999 300.0 537.136 298.992C540.4399999999999 297.088 542.456 294.232 542.456 291.432C542.456 289.36 542.064 288.912 538.928 286.952C537.024 285.72 536.24 284.656 536.24 283.2C536.24 281.296 537.864 279.616 539.768 279.616C541.056 279.616 542.008 280.23199999999997 543.24 281.8C545.144 279.952 545.144 279.952 545.872 278.888Z" fill="url(#goldGrad2)" stroke="#8a5c07" stroke-width="0.6"/>
    <path d="M562.896 294.344 563.0079999999999 292.944C558.752 295.464 556.9599999999999 296.416 556.1759999999999 296.416C555.448 296.416 554.5519999999999 294.96 554.5519999999999 293.784C554.5519999999999 293.0 555.5039999999999 288.688 556.9599999999999 282.808C557.7439999999999 282.752 558.304 282.752 558.584 282.752L560.824 282.696C561.048 282.696 561.608 282.64 562.5039999999999 282.528L564.632 280.904H557.4639999999999L559.704 271.832C558.64 272.392 558.192 272.56 557.352 272.952C556.9599999999999 273.176 556.512 273.344 556.064 273.568C555.8399999999999 273.68 555.56 273.792 555.28 273.904L553.712 280.904C553.208 280.96 552.872 280.96 552.704 280.96H551.3599999999999C551.3599999999999 280.96 550.968 280.96 550.52 281.016C549.904 281.408 549.848 281.408 548.896 282.192C548.728 282.304 548.448 282.528 548.0559999999999 282.808H549.4H551.976H553.208C550.2399999999999 295.24 550.2399999999999 295.24 550.2399999999999 296.976C550.2399999999999 298.768 551.4159999999999 300.728 552.4799999999999 300.728C553.712 300.728 557.52 298.376 562.896 294.344Z" fill="url(#goldGrad2)" stroke="#8a5c07" stroke-width="0.6"/>
    <path d="M577.848 294.96 578.0719999999999 293.28C575.3279999999999 294.96 572.584 296.36 572.0799999999999 296.36C571.4639999999999 296.36 571.016 295.688 571.016 294.792C571.016 292.776 571.6879999999999 290.648 572.1919999999999 288.52L573.9279999999999 281.408C574.2079999999999 280.23199999999997 574.656 278.44 574.656 277.76800000000003C574.656 277.32 574.4879999999999 277.04 573.9839999999999 277.04C572.6959999999999 277.04 566.872 280.848 565.1919999999999 281.968L565.1359999999999 283.592C566.4239999999999 282.864 568.4399999999999 281.52 569.2239999999999 281.52C569.8399999999999 281.52 569.896 282.136 569.896 282.64C569.896 283.872 568.6639999999999 288.016 568.0479999999999 290.592C567.4319999999999 293.168 566.4239999999999 295.8 566.4239999999999 298.32C566.4239999999999 299.776 566.9839999999999 300.672 567.8799999999999 300.672C568.8319999999999 300.672 569.8399999999999 300.168 573.088 298.04C573.9839999999999 297.424 574.4319999999999 297.088 577.848 294.96ZM578.2399999999999 268.976C577.2319999999999 267.352 577.1759999999999 267.18399999999997 576.6159999999999 265.896C576.56 265.672 576.4479999999999 265.392 576.3359999999999 265.168C575.9999999999999 265.448 575.776 265.616 575.5519999999999 265.784C574.04 267.072 573.9279999999999 267.128 572.4719999999999 268.136C572.92 269.48 573.3119999999999 270.152 574.5999999999999 272.056L576.4479999999999 270.376C576.7839999999999 270.152 576.9519999999999 269.984 578.2399999999999 268.976Z" fill="url(#goldGrad2)" stroke="#8a5c07" stroke-width="0.6"/>
    <path d="M603.16 292.832C597.56 296.024 597.336 296.136 596.776 296.136C596.216 296.136 595.88 295.52 595.88 294.624C595.88 293.448 596.2719999999999 291.6 597.336 287.736C599.968 278.328 599.968 278.328 599.968 277.936C599.968 277.32 599.576 276.984 598.848 276.984C598.0079999999999 276.984 596.776 277.488 594.76 278.776L587.088 283.536C587.592 281.688 588.432 278.16 588.432 277.712C588.432 277.32 588.096 276.984 587.704 276.984C587.088 276.984 583.0559999999999 279.056 578.9119999999999 281.52L578.5759999999999 282.976C582.16 281.352 582.384 281.296 582.8879999999999 281.296C583.28 281.296 583.56 281.632 583.56 282.08C583.56 283.256 582.496 287.904 581.096 293.0L579.808 297.536L579.024 300.56L583.2239999999999 298.936L586.528 285.776C593.528 281.352 593.6959999999999 281.296 594.48 281.296C594.872 281.296 595.096 281.576 595.096 282.024C595.096 282.864 594.6479999999999 284.992 593.024 291.376C591.7919999999999 296.36 591.568 297.312 591.568 298.376C591.568 299.16 591.7919999999999 299.888 592.408 300.896C594.9839999999999 299.72 598.848 297.312 602.7679999999999 294.4Z" fill="url(#goldGrad2)" stroke="#8a5c07" stroke-width="0.6"/>
    <path d="M624.944 282.136C624.944 279.112 622.872 276.984 619.904 276.984C617.664 276.984 614.0799999999999 278.608 610.776 281.072C607.192 283.76 604.6719999999999 289.584 604.6719999999999 295.128C604.6719999999999 298.544 606.5759999999999 300.728 609.544 300.728C611.112 300.728 612.68 300.168 615.256 298.824C618.0559999999999 297.256 619.904 295.856 620.9119999999999 294.512C623.1519999999999 291.488 624.944 286.0 624.944 282.136ZM620.632 285.16C620.632 287.512 619.848 290.424 618.448 293.168C616.88 296.36 614.8639999999999 298.096 612.736 298.096C610.4399999999999 298.096 608.9839999999999 296.024 608.9839999999999 292.832C608.9839999999999 286.336 613.072 279.616 616.992 279.616C619.232 279.616 620.632 281.8 620.632 285.16Z" fill="url(#goldGrad2)" stroke="#8a5c07" stroke-width="0.6"/>
    <path d="M634.2399999999999 290.312C632.2239999999999 290.928 632.1679999999999 290.984 630.208 291.544C629.704 297.816 628.136 301.064 623.8799999999999 304.872L625.3919999999999 305.488C631.944 299.832 632.9519999999999 298.152 634.2399999999999 290.312Z" fill="url(#goldGrad2)" stroke="#8a5c07" stroke-width="0.6"/>
    <path d="M675.96 292.832C670.36 296.024 670.1360000000001 296.136 669.576 296.136C669.0160000000001 296.136 668.6800000000001 295.52 668.6800000000001 294.624C668.6800000000001 293.448 669.072 291.6 670.1360000000001 287.736C672.768 278.328 672.768 278.328 672.768 277.936C672.768 277.32 672.376 276.984 671.648 276.984C670.808 276.984 669.576 277.488 667.5600000000001 278.776L659.888 283.536C660.392 281.688 661.2320000000001 278.16 661.2320000000001 277.712C661.2320000000001 277.32 660.8960000000001 276.984 660.504 276.984C659.888 276.984 655.856 279.056 651.712 281.52L651.376 282.976C654.96 281.352 655.1840000000001 281.296 655.688 281.296C656.08 281.296 656.36 281.632 656.36 282.08C656.36 283.256 655.296 287.904 653.8960000000001 293.0L652.6080000000001 297.536L651.8240000000001 300.56L656.024 298.936L659.328 285.776C666.328 281.352 666.496 281.296 667.2800000000001 281.296C667.672 281.296 667.8960000000001 281.576 667.8960000000001 282.024C667.8960000000001 282.864 667.448 284.992 665.8240000000001 291.376C664.592 296.36 664.368 297.312 664.368 298.376C664.368 299.16 664.592 299.888 665.2080000000001 300.896C667.784 299.72 671.648 297.312 675.568 294.4Z" fill="url(#goldGrad2)" stroke="#8a5c07" stroke-width="0.6"/>
    <path d="M701.384 293.896 701.104 293.392C700.096 294.064 696.232 296.64 695.392 296.64C694.664 296.64 694.6080000000001 295.632 694.6080000000001 294.848C694.6080000000001 291.824 697.464 280.792 698.808 276.928C698.024 277.376 694.832 278.944 694.16 279.28L691.304 291.76800000000003C691.192 292.16 690.072 293.168 689.96 293.504C689.008 294.12 685.144 296.696 684.192 296.696C683.24 296.696 683.0160000000001 295.464 683.0160000000001 294.68C683.0160000000001 292.44 684.7520000000001 286.28 685.7040000000001 282.64C686.0400000000001 281.184 686.712 278.552 686.712 277.88C686.712 277.376 686.488 277.096 685.984 277.096C684.976 277.096 678.8720000000001 280.848 677.248 281.744L677.136 283.256C678.256 282.696 680.104 281.632 681.056 281.632C681.616 281.632 681.784 282.248 681.784 282.696C681.784 285.832 678.816 293.616 678.816 297.984C678.816 299.272 679.152 300.784 680.664 300.784C682.0640000000001 300.784 689.6800000000001 295.576 690.688 294.848C690.52 295.968 690.128 298.488 690.128 299.552C690.128 300.168 690.52 300.728 691.248 300.728C692.7040000000001 300.728 698.528 296.752 700.6560000000001 295.128C700.936 294.96 701.272 294.008 701.384 293.896Z" fill="url(#goldGrad2)" stroke="#8a5c07" stroke-width="0.6"/>
    <path d="M719.7520000000001 294.064V292.44C717.6800000000001 294.12 713.7040000000001 297.536 710.848 297.536C707.712 297.536 707.432 294.176 707.488 291.992C708.7760000000001 291.376 714.264 287.23199999999997 715.384 286.392C717.456 284.712 718.968 282.92 718.968 280.288C718.968 278.44 717.848 277.04 715.7760000000001 277.04C713.76 277.04 712.024 278.048 710.008 279.616C705.08 283.424 703.344 289.696 703.344 294.96C703.344 298.376 704.744 300.784 708.16 300.784C712.472 300.784 717.456 296.36 719.7520000000001 294.064ZM714.8240000000001 281.856C714.8240000000001 285.888 710.232 288.184 707.544 290.256C707.768 287.456 709.896 279.504 713.088 279.504C714.32 279.504 714.8240000000001 280.624 714.8240000000001 281.856Z" fill="url(#goldGrad2)" stroke="#8a5c07" stroke-width="0.6"/>
    <path d="M738.512 278.888C737.3919999999999 277.544 736.328 276.984 734.76 276.984C730.672 276.984 725.408 281.856 725.408 285.552C725.408 287.288 726.304 288.632 728.432 290.144C731.232 292.104 731.624 292.608 731.624 294.008C731.624 296.024 729.048 298.376 726.864 298.376C725.632 298.376 724.68 297.704 724.12 296.472C723.728 295.632 723.616 294.792 723.56 292.888C722.944 293.336 722.496 293.616 722.2719999999999 293.784C721.824 294.064 721.3199999999999 294.344 720.816 294.68C720.816 294.68 720.3679999999999 294.96 719.808 295.352C719.752 295.856 719.696 296.304 719.696 296.64C719.696 299.048 721.376 300.728 723.84 300.728C725.576 300.728 727.9839999999999 300.0 729.776 298.992C733.0799999999999 297.088 735.096 294.232 735.096 291.432C735.096 289.36 734.704 288.912 731.568 286.952C729.664 285.72 728.88 284.656 728.88 283.2C728.88 281.296 730.504 279.616 732.408 279.616C733.696 279.616 734.648 280.23199999999997 735.88 281.8C737.784 279.952 737.784 279.952 738.512 278.888Z" fill="url(#goldGrad2)" stroke="#8a5c07" stroke-width="0.6"/>
    <path d="M755.536 294.344 755.6479999999999 292.944C751.3919999999999 295.464 749.5999999999999 296.416 748.8159999999999 296.416C748.088 296.416 747.1919999999999 294.96 747.1919999999999 293.784C747.1919999999999 293.0 748.1439999999999 288.688 749.5999999999999 282.808C750.3839999999999 282.752 750.944 282.752 751.2239999999999 282.752L753.4639999999999 282.696C753.688 282.696 754.2479999999999 282.64 755.1439999999999 282.528L757.2719999999999 280.904H750.1039999999999L752.3439999999999 271.832C751.28 272.392 750.8319999999999 272.56 749.992 272.952C749.5999999999999 273.176 749.1519999999999 273.344 748.704 273.568C748.4799999999999 273.68 748.1999999999999 273.792 747.92 273.904L746.352 280.904C745.848 280.96 745.512 280.96 745.3439999999999 280.96H743.9999999999999C743.9999999999999 280.96 743.608 280.96 743.16 281.016C742.544 281.408 742.4879999999999 281.408 741.536 282.192C741.3679999999999 282.304 741.088 282.528 740.6959999999999 282.808H742.04H744.616H745.848C742.8799999999999 295.24 742.8799999999999 295.24 742.8799999999999 296.976C742.8799999999999 298.768 744.0559999999999 300.728 745.1199999999999 300.728C746.352 300.728 750.16 298.376 755.536 294.344Z" fill="url(#goldGrad2)" stroke="#8a5c07" stroke-width="0.6"/>
    <path d="M776.1439999999999 277.432C775.0799999999999 277.096 774.632 276.984 774.0719999999999 276.984C773.0639999999999 276.984 771.8879999999999 277.488 770.3759999999999 278.552L767.0719999999999 280.96C767.1279999999999 280.512 767.2399999999999 280.23199999999997 767.2399999999999 280.064C767.6879999999999 278.216 767.7439999999999 277.88 767.7439999999999 277.6C767.7439999999999 277.264 767.4079999999999 276.984 767.0159999999998 276.984C766.2879999999999 276.984 761.3599999999999 279.392 757.9439999999998 281.464L757.7759999999998 282.976C760.7999999999998 281.408 761.1359999999999 281.296 761.8079999999999 281.296C762.536 281.296 762.8719999999998 281.688 762.8719999999998 282.472C762.8719999999998 283.256 762.3119999999999 285.888 761.6399999999999 288.296L758.2799999999999 300.56L762.5919999999999 298.936L766.7919999999999 282.976C768.6959999999999 281.576 769.9839999999999 281.016 771.4959999999999 281.016C772.7279999999998 281.016 773.4559999999999 281.464 774.4639999999999 282.752Z" fill="url(#goldGrad2)" stroke="#8a5c07" stroke-width="0.6"/>
    <path d="M797.5359999999998 294.456V292.832C796.4719999999999 293.504 792.7759999999998 296.136 791.8799999999999 296.136C791.3199999999998 296.136 791.2079999999999 295.408 791.2079999999999 294.904C791.2079999999999 292.832 793.7279999999998 282.584 794.3999999999999 279.84C794.6239999999998 279.504 795.7439999999998 278.104 796.0239999999999 277.824C794.1199999999999 277.32 791.6559999999998 276.984 789.4159999999998 276.984C785.6639999999999 276.984 785.2719999999998 277.376 782.6959999999998 279.168C781.1839999999999 280.23199999999997 779.7839999999999 280.848 778.7199999999998 282.528C775.9199999999998 286.896 774.8559999999999 292.552 774.8559999999999 296.08C774.8559999999999 297.76 775.3039999999999 300.784 777.2639999999999 300.784C779.3359999999999 300.784 784.3759999999999 296.584 787.2879999999999 294.568L786.8959999999998 297.088C786.5599999999998 298.992 786.2239999999998 300.728 787.5679999999999 300.728C788.9679999999998 300.728 795.9119999999998 295.632 797.5359999999998 294.456ZM787.6239999999998 292.384C785.9439999999998 293.616 782.2479999999998 296.64 780.7919999999998 296.64C779.3359999999999 296.64 779.0559999999998 295.128 779.0559999999998 293.784C779.0559999999998 290.2 780.1759999999998 286.112 781.6319999999998 283.256C782.5839999999998 281.296 783.4799999999999 279.672 785.9999999999999 279.672C787.3999999999999 279.672 789.1359999999999 280.064 790.5359999999998 280.344Z" fill="url(#goldGrad2)" stroke="#8a5c07" stroke-width="0.6"/>
    <path d="M844.6879999999999 294.456V293.168C844.1279999999999 293.448 843.5119999999998 293.84 842.7839999999999 294.344C840.7679999999999 295.632 839.8159999999999 296.08 839.1439999999999 296.08C838.5279999999999 296.08 838.1359999999999 295.52 838.1359999999999 294.568C838.1359999999999 293.336 838.8639999999999 290.144 839.9839999999999 286.224C841.6639999999999 280.456 842.1119999999999 278.664 842.1119999999999 277.824C842.1119999999999 277.264 841.7759999999998 276.984 841.2159999999999 276.984C840.2079999999999 276.984 836.7359999999999 278.776 829.9039999999999 282.808C830.0719999999999 282.192 830.1279999999999 281.744 830.1839999999999 281.52C830.8559999999999 278.72 831.0239999999999 277.936 831.0239999999999 277.6C831.0239999999999 277.20799999999997 830.7439999999999 276.984 830.2959999999999 276.984C829.4559999999999 276.984 826.5439999999999 278.552 820.9439999999998 282.136L819.1519999999999 283.256C820.1599999999999 279.168 820.3839999999999 278.16 820.3839999999999 277.76800000000003C820.3839999999999 277.32 820.0479999999999 276.984 819.5439999999999 276.984C818.8719999999998 276.984 814.4479999999999 279.392 810.8079999999999 281.688L810.4159999999998 283.256C813.4959999999999 281.744 813.9439999999998 281.576 814.5599999999998 281.576C815.0639999999999 281.576 815.3999999999999 282.024 815.3999999999999 282.64C815.3999999999999 283.536 813.3839999999999 291.824 811.0319999999999 300.56L815.0079999999999 299.048L818.5919999999999 285.44C822.3439999999998 282.92 824.6399999999999 281.576 825.3679999999999 281.576C825.8159999999999 281.576 826.0959999999999 282.08 826.0959999999999 282.808C826.0959999999999 284.488 823.9679999999998 293.0 821.6159999999999 300.56L825.8719999999998 299.048L829.3439999999999 285.048C832.5919999999999 282.976 835.6159999999999 281.296 836.2879999999999 281.296C836.7359999999999 281.296 837.0159999999998 281.688 837.0159999999998 282.36C837.0159999999998 283.592 836.5119999999998 285.888 834.9999999999999 291.88C834.1039999999999 295.352 833.8239999999998 296.752 833.8239999999998 298.04C833.8239999999998 299.216 834.1599999999999 299.832 835.1679999999999 300.56C838.4719999999999 298.936 841.2719999999999 297.144 844.6879999999999 294.456Z" fill="url(#goldGrad2)" stroke="#8a5c07" stroke-width="0.6"/>
    <path d="M857.848 294.96 858.0719999999999 293.28C855.3279999999999 294.96 852.584 296.36 852.0799999999999 296.36C851.4639999999999 296.36 851.016 295.688 851.016 294.792C851.016 292.776 851.6879999999999 290.648 852.1919999999999 288.52L853.9279999999999 281.408C854.2079999999999 280.23199999999997 854.656 278.44 854.656 277.76800000000003C854.656 277.32 854.4879999999999 277.04 853.9839999999999 277.04C852.6959999999999 277.04 846.872 280.848 845.1919999999999 281.968L845.1359999999999 283.592C846.4239999999999 282.864 848.4399999999999 281.52 849.2239999999999 281.52C849.8399999999999 281.52 849.896 282.136 849.896 282.64C849.896 283.872 848.6639999999999 288.016 848.0479999999999 290.592C847.4319999999999 293.168 846.4239999999999 295.8 846.4239999999999 298.32C846.4239999999999 299.776 846.9839999999999 300.672 847.8799999999999 300.672C848.8319999999999 300.672 849.8399999999999 300.168 853.088 298.04C853.9839999999999 297.424 854.4319999999999 297.088 857.848 294.96ZM858.2399999999999 268.976C857.2319999999999 267.352 857.1759999999999 267.18399999999997 856.6159999999999 265.896C856.56 265.672 856.4479999999999 265.392 856.3359999999999 265.168C855.9999999999999 265.448 855.776 265.616 855.5519999999999 265.784C854.04 267.072 853.9279999999999 267.128 852.4719999999999 268.136C852.92 269.48 853.3119999999999 270.152 854.5999999999999 272.056L856.4479999999999 270.376C856.7839999999999 270.152 856.9519999999999 269.984 858.2399999999999 268.976Z" fill="url(#goldGrad2)" stroke="#8a5c07" stroke-width="0.6"/>
    <path d="M875.1519999999999 278.888C874.0319999999999 277.544 872.968 276.984 871.4 276.984C867.312 276.984 862.048 281.856 862.048 285.552C862.048 287.288 862.944 288.632 865.072 290.144C867.872 292.104 868.264 292.608 868.264 294.008C868.264 296.024 865.688 298.376 863.504 298.376C862.2719999999999 298.376 861.3199999999999 297.704 860.76 296.472C860.3679999999999 295.632 860.256 294.792 860.1999999999999 292.888C859.584 293.336 859.136 293.616 858.9119999999999 293.784C858.4639999999999 294.064 857.9599999999999 294.344 857.456 294.68C857.456 294.68 857.0079999999999 294.96 856.448 295.352C856.3919999999999 295.856 856.336 296.304 856.336 296.64C856.336 299.048 858.016 300.728 860.48 300.728C862.216 300.728 864.6239999999999 300.0 866.4159999999999 298.992C869.7199999999999 297.088 871.736 294.232 871.736 291.432C871.736 289.36 871.3439999999999 288.912 868.208 286.952C866.304 285.72 865.52 284.656 865.52 283.2C865.52 281.296 867.144 279.616 869.048 279.616C870.336 279.616 871.288 280.23199999999997 872.52 281.8C874.424 279.952 874.424 279.952 875.1519999999999 278.888Z" fill="url(#goldGrad2)" stroke="#8a5c07" stroke-width="0.6"/>
    <path d="M889.208 294.96 889.4319999999999 293.28C886.6879999999999 294.96 883.944 296.36 883.4399999999999 296.36C882.824 296.36 882.376 295.688 882.376 294.792C882.376 292.776 883.0479999999999 290.648 883.5519999999999 288.52L885.2879999999999 281.408C885.5679999999999 280.23199999999997 886.016 278.44 886.016 277.76800000000003C886.016 277.32 885.848 277.04 885.3439999999999 277.04C884.0559999999999 277.04 878.232 280.848 876.5519999999999 281.968L876.4959999999999 283.592C877.7839999999999 282.864 879.8 281.52 880.584 281.52C881.1999999999999 281.52 881.256 282.136 881.256 282.64C881.256 283.872 880.0239999999999 288.016 879.4079999999999 290.592C878.7919999999999 293.168 877.7839999999999 295.8 877.7839999999999 298.32C877.7839999999999 299.776 878.3439999999999 300.672 879.2399999999999 300.672C880.1919999999999 300.672 881.1999999999999 300.168 884.4479999999999 298.04C885.3439999999999 297.424 885.7919999999999 297.088 889.208 294.96ZM889.5999999999999 268.976C888.5919999999999 267.352 888.536 267.18399999999997 887.9759999999999 265.896C887.92 265.672 887.8079999999999 265.392 887.6959999999999 265.168C887.3599999999999 265.448 887.136 265.616 886.9119999999999 265.784C885.4 267.072 885.2879999999999 267.128 883.8319999999999 268.136C884.28 269.48 884.6719999999999 270.152 885.9599999999999 272.056L887.8079999999999 270.376C888.1439999999999 270.152 888.3119999999999 269.984 889.5999999999999 268.976Z" fill="url(#goldGrad2)" stroke="#8a5c07" stroke-width="0.6"/>
    <path d="M910.544 282.136C910.544 279.112 908.472 276.984 905.504 276.984C903.264 276.984 899.68 278.608 896.376 281.072C892.792 283.76 890.2719999999999 289.584 890.2719999999999 295.128C890.2719999999999 298.544 892.1759999999999 300.728 895.144 300.728C896.712 300.728 898.28 300.168 900.856 298.824C903.656 297.256 905.504 295.856 906.512 294.512C908.752 291.488 910.544 286.0 910.544 282.136ZM906.232 285.16C906.232 287.512 905.448 290.424 904.048 293.168C902.48 296.36 900.4639999999999 298.096 898.336 298.096C896.04 298.096 894.584 296.024 894.584 292.832C894.584 286.336 898.672 279.616 902.592 279.616C904.832 279.616 906.232 281.8 906.232 285.16ZM911.72 264.44 908.0799999999999 263.20799999999997C905.952 267.744 903.376 271.272 901.472 273.792L902.816 274.128C906.288 270.04 907.408 268.808 911.72 264.44Z" fill="url(#goldGrad2)" stroke="#8a5c07" stroke-width="0.6"/>
    <path d="M936.92 292.832C931.3199999999999 296.024 931.096 296.136 930.536 296.136C929.976 296.136 929.64 295.52 929.64 294.624C929.64 293.448 930.0319999999999 291.6 931.096 287.736C933.728 278.328 933.728 278.328 933.728 277.936C933.728 277.32 933.336 276.984 932.608 276.984C931.7679999999999 276.984 930.536 277.488 928.52 278.776L920.848 283.536C921.352 281.688 922.192 278.16 922.192 277.712C922.192 277.32 921.856 276.984 921.4639999999999 276.984C920.848 276.984 916.8159999999999 279.056 912.6719999999999 281.52L912.3359999999999 282.976C915.92 281.352 916.144 281.296 916.6479999999999 281.296C917.04 281.296 917.3199999999999 281.632 917.3199999999999 282.08C917.3199999999999 283.256 916.256 287.904 914.856 293.0L913.568 297.536L912.784 300.56L916.9839999999999 298.936L920.288 285.776C927.288 281.352 927.4559999999999 281.296 928.24 281.296C928.632 281.296 928.856 281.576 928.856 282.024C928.856 282.864 928.4079999999999 284.992 926.784 291.376C925.5519999999999 296.36 925.328 297.312 925.328 298.376C925.328 299.16 925.5519999999999 299.888 926.168 300.896C928.7439999999999 299.72 932.608 297.312 936.5279999999999 294.4Z" fill="url(#goldGrad2)" stroke="#8a5c07" stroke-width="0.6"/>
  </g>
</svg>
